<svg xmlns="http://www.w3.org/2000/svg" viewBox="0 0 900 500" width="900" height="500" role="img">
<rect width="900" height="500" fill="#111113"/>
<text x="78" y="30" fill="#fafafa" font-family="'Fira Code', ui-monospace, monospace" font-size="19" font-weight="700">Time to be ready for new mail vs. inbox backlog</text>
<text x="78" y="50" fill="#a1a1aa" font-family="'Fira Code', ui-monospace, monospace" font-size="12.5">Connect → ready. Log–log. emap-go skips backlog via UIDNEXT; emersion does a naive mailbox sync.</text><line x1="78" y1="384.67065920113936" x2="872" y2="384.67065920113936" stroke="#27272a"/><text x="68" y="388.67065920113936" fill="#52525b" font-family="'Fira Code', ui-monospace, monospace" font-size="11" text-anchor="end">1</text><line x1="78" y1="297.97878042806417" x2="872" y2="297.97878042806417" stroke="#27272a"/><text x="68" y="301.97878042806417" fill="#52525b" font-family="'Fira Code', ui-monospace, monospace" font-size="11" text-anchor="end">10</text><line x1="78" y1="211.28690165498907" x2="872" y2="211.28690165498907" stroke="#27272a"/><text x="68" y="215.28690165498907" fill="#52525b" font-family="'Fira Code', ui-monospace, monospace" font-size="11" text-anchor="end">100</text><line x1="78" y1="124.5950228819139" x2="872" y2="124.5950228819139" stroke="#27272a"/><text x="68" y="128.5950228819139" fill="#52525b" font-family="'Fira Code', ui-monospace, monospace" font-size="11" text-anchor="end">1000</text><line x1="78" y1="64" x2="78" y2="430" stroke="#27272a" stroke-dasharray="2 4"/><text x="78" y="450" fill="#52525b" font-family="'Fira Code', ui-monospace, monospace" font-size="11" text-anchor="middle">1k</text><line x1="342.66666666666663" y1="64" x2="342.66666666666663" y2="430" stroke="#27272a" stroke-dasharray="2 4"/><text x="342.66666666666663" y="450" fill="#52525b" font-family="'Fira Code', ui-monospace, monospace" font-size="11" text-anchor="middle">10k</text><line x1="607.3333333333333" y1="64" x2="607.3333333333333" y2="430" stroke="#27272a" stroke-dasharray="2 4"/><text x="607.3333333333333" y="450" fill="#52525b" font-family="'Fira Code', ui-monospace, monospace" font-size="11" text-anchor="middle">100k</text><line x1="872" y1="64" x2="872" y2="430" stroke="#27272a" stroke-dasharray="2 4"/><text x="872" y="450" fill="#52525b" font-family="'Fira Code', ui-monospace, monospace" font-size="11" text-anchor="middle">1M</text><text x="475" y="462" fill="#a1a1aa" font-family="'Fira Code', ui-monospace, monospace" font-size="12" text-anchor="middle">messages already in the inbox (backlog)</text><text transform="translate(20,247) rotate(-90)" fill="#a1a1aa" font-family="'Fira Code', ui-monospace, monospace" font-size="12" text-anchor="middle">time to ready (ms, log)</text><polygon points="78,430 78.0,319.1 342.7,255.5 607.3,176.3 872.0,89.4 872,430" fill="rgba(239,68,68,0.10)"/><polyline points="78.0,319.1 342.7,255.5 607.3,176.3 872.0,89.4" fill="none" stroke="#ef4444" stroke-width="2.5"/><circle cx="78.0" cy="319.1" r="3.2" fill="#ef4444"/><circle cx="342.7" cy="255.5" r="3.2" fill="#ef4444"/><circle cx="607.3" cy="176.3" r="3.2" fill="#ef4444"/><circle cx="872.0" cy="89.4" r="3.2" fill="#ef4444"/><polygon points="78,430 78.0,372.2 342.7,367.1 607.3,369.8 872.0,387.7 872,430" fill="rgba(34,197,94,0.12)"/><polyline points="78.0,372.2 342.7,367.1 607.3,369.8 872.0,387.7" fill="none" stroke="#22c55e" stroke-width="2.5"/><circle cx="78.0" cy="372.2" r="3.2" fill="#22c55e"/><circle cx="342.7" cy="367.1" r="3.2" fill="#22c55e"/><circle cx="607.3" cy="369.8" r="3.2" fill="#22c55e"/><circle cx="872.0" cy="387.7" r="3.2" fill="#22c55e"/><text x="866" y="79.38423037163807" fill="#ef4444" font-family="'Fira Code', ui-monospace, monospace" font-size="11.5" text-anchor="end">emersion: 2.5 s · 1M msgs · 102 MB</text><text x="607.3333333333333" y="388.0994011379351" fill="#22c55e" font-family="'Fira Code', ui-monospace, monospace" font-size="11.5" text-anchor="middle">emap-go: ~1 ms · 0 msgs · 0.5 KB (flat)</text><line x1="78" y1="480" x2="104" y2="480" stroke="#22c55e" stroke-width="3"/><text x="111" y="484" fill="#a1a1aa" font-family="'Fira Code', ui-monospace, monospace" font-size="12.5">emap-go (UIDNEXT skip)</text><line x1="304.8" y1="480" x2="330.8" y2="480" stroke="#ef4444" stroke-width="3"/><text x="337.8" y="484" fill="#a1a1aa" font-family="'Fira Code', ui-monospace, monospace" font-size="12.5">emersion (naive mailbox sync)</text>
</svg>
