<svg xmlns="http://www.w3.org/2000/svg" viewBox="0 0 900 500" width="900" height="500" role="img">
<rect width="900" height="500" fill="#111113"/>
<text x="78" y="30" fill="#fafafa" font-family="'Fira Code', ui-monospace, monospace" font-size="19" font-weight="700">Resident memory vs. number of task-watchers</text>
<text x="78" y="50" fill="#a1a1aa" font-family="'Fira Code', ui-monospace, monospace" font-size="12.5">Same workload. Process RSS after GC. Lower is better.</text><line x1="78" y1="430" x2="872" y2="430" stroke="#27272a"/><text x="68" y="434" fill="#52525b" font-family="'Fira Code', ui-monospace, monospace" font-size="11" text-anchor="end">0</text><line x1="78" y1="363.45454545454544" x2="872" y2="363.45454545454544" stroke="#27272a"/><text x="68" y="367.45454545454544" fill="#52525b" font-family="'Fira Code', ui-monospace, monospace" font-size="11" text-anchor="end">10</text><line x1="78" y1="296.9090909090909" x2="872" y2="296.9090909090909" stroke="#27272a"/><text x="68" y="300.9090909090909" fill="#52525b" font-family="'Fira Code', ui-monospace, monospace" font-size="11" text-anchor="end">20</text><line x1="78" y1="230.36363636363637" x2="872" y2="230.36363636363637" stroke="#27272a"/><text x="68" y="234.36363636363637" fill="#52525b" font-family="'Fira Code', ui-monospace, monospace" font-size="11" text-anchor="end">30</text><line x1="78" y1="163.8181818181818" x2="872" y2="163.8181818181818" stroke="#27272a"/><text x="68" y="167.8181818181818" fill="#52525b" font-family="'Fira Code', ui-monospace, monospace" font-size="11" text-anchor="end">40</text><line x1="78" y1="97.27272727272731" x2="872" y2="97.27272727272731" stroke="#27272a"/><text x="68" y="101.27272727272731" fill="#52525b" font-family="'Fira Code', ui-monospace, monospace" font-size="11" text-anchor="end">50</text><text x="78" y="450" fill="#52525b" font-family="'Fira Code', ui-monospace, monospace" font-size="11" text-anchor="middle">0</text><text x="276.5" y="450" fill="#52525b" font-family="'Fira Code', ui-monospace, monospace" font-size="11" text-anchor="middle">500</text><text x="475" y="450" fill="#52525b" font-family="'Fira Code', ui-monospace, monospace" font-size="11" text-anchor="middle">1000</text><text x="673.5" y="450" fill="#52525b" font-family="'Fira Code', ui-monospace, monospace" font-size="11" text-anchor="middle">1500</text><text x="872" y="450" fill="#52525b" font-family="'Fira Code', ui-monospace, monospace" font-size="11" text-anchor="middle">2000</text><text x="475" y="462" fill="#a1a1aa" font-family="'Fira Code', ui-monospace, monospace" font-size="12" text-anchor="middle">task-watchers (N)</text><text transform="translate(20,247) rotate(-90)" fill="#a1a1aa" font-family="'Fira Code', ui-monospace, monospace" font-size="12" text-anchor="middle">resident memory (MB)</text><polygon points="78,430 78.4,383.4 80.0,380.9 84.0,378.4 97.8,372.6 117.7,365.1 177.3,343.5 276.5,313.5 475.0,246.2 872.0,104.8 872,430" fill="rgba(239,68,68,0.10)"/><polyline points="78.4,383.4 80.0,380.9 84.0,378.4 97.8,372.6 117.7,365.1 177.3,343.5 276.5,313.5 475.0,246.2 872.0,104.8" fill="none" stroke="#ef4444" stroke-width="2.5"/><circle cx="78.4" cy="383.4" r="3.2" fill="#ef4444"/><circle cx="80.0" cy="380.9" r="3.2" fill="#ef4444"/><circle cx="84.0" cy="378.4" r="3.2" fill="#ef4444"/><circle cx="97.8" cy="372.6" r="3.2" fill="#ef4444"/><circle cx="117.7" cy="365.1" r="3.2" fill="#ef4444"/><circle cx="177.3" cy="343.5" r="3.2" fill="#ef4444"/><circle cx="276.5" cy="313.5" r="3.2" fill="#ef4444"/><circle cx="475.0" cy="246.2" r="3.2" fill="#ef4444"/><circle cx="872.0" cy="104.8" r="3.2" fill="#ef4444"/><polygon points="78,430 78.4,383.4 80.0,382.6 84.0,383.4 97.8,380.1 117.7,380.1 177.3,377.6 276.5,375.1 475.0,371.8 872.0,361.0 872,430" fill="rgba(34,197,94,0.12)"/><polyline points="78.4,383.4 80.0,382.6 84.0,383.4 97.8,380.1 117.7,380.1 177.3,377.6 276.5,375.1 475.0,371.8 872.0,361.0" fill="none" stroke="#22c55e" stroke-width="2.5"/><circle cx="78.4" cy="383.4" r="3.2" fill="#22c55e"/><circle cx="80.0" cy="382.6" r="3.2" fill="#22c55e"/><circle cx="84.0" cy="383.4" r="3.2" fill="#22c55e"/><circle cx="97.8" cy="380.1" r="3.2" fill="#22c55e"/><circle cx="117.7" cy="380.1" r="3.2" fill="#22c55e"/><circle cx="177.3" cy="377.6" r="3.2" fill="#22c55e"/><circle cx="276.5" cy="375.1" r="3.2" fill="#22c55e"/><circle cx="475.0" cy="371.8" r="3.2" fill="#22c55e"/><circle cx="872.0" cy="361.0" r="3.2" fill="#22c55e"/><text x="866" y="108.7590909090909" fill="#ef4444" font-family="'Fira Code', ui-monospace, monospace" font-size="11.5" text-anchor="end">emersion: ~49 MB</text><text x="866" y="350.95909090909095" fill="#22c55e" font-family="'Fira Code', ui-monospace, monospace" font-size="11.5" text-anchor="end">emap-go: ~10.4 MB</text><line x1="78" y1="480" x2="104" y2="480" stroke="#22c55e" stroke-width="3"/><text x="111" y="484" fill="#a1a1aa" font-family="'Fira Code', ui-monospace, monospace" font-size="12.5">emap-go (pooled)</text><line x1="260.4" y1="480" x2="286.4" y2="480" stroke="#ef4444" stroke-width="3"/><text x="293.4" y="484" fill="#a1a1aa" font-family="'Fira Code', ui-monospace, monospace" font-size="12.5">emersion (one client per task)</text>
</svg>
