<svg xmlns="http://www.w3.org/2000/svg" viewBox="0 0 900 500" width="900" height="500" role="img">
<rect width="900" height="500" fill="#111113"/>
<text x="78" y="30" fill="#fafafa" font-family="'Fira Code', ui-monospace, monospace" font-size="19" font-weight="700">Open IMAP connections vs. number of task-watchers</text>
<text x="78" y="50" fill="#a1a1aa" font-family="'Fira Code', ui-monospace, monospace" font-size="12.5">One shared catch-all inbox. Lower is better. Measured against a localhost IMAP server.</text><line x1="78" y1="430" x2="872" y2="430" stroke="#27272a"/><text x="68" y="434" fill="#52525b" font-family="'Fira Code', ui-monospace, monospace" font-size="11" text-anchor="end">0</text><text x="78" y="450" fill="#52525b" font-family="'Fira Code', ui-monospace, monospace" font-size="11" text-anchor="middle">0</text><line x1="78" y1="338.5" x2="872" y2="338.5" stroke="#27272a"/><text x="68" y="342.5" fill="#52525b" font-family="'Fira Code', ui-monospace, monospace" font-size="11" text-anchor="end">500</text><text x="276.5" y="450" fill="#52525b" font-family="'Fira Code', ui-monospace, monospace" font-size="11" text-anchor="middle">500</text><line x1="78" y1="247" x2="872" y2="247" stroke="#27272a"/><text x="68" y="251" fill="#52525b" font-family="'Fira Code', ui-monospace, monospace" font-size="11" text-anchor="end">1000</text><text x="475" y="450" fill="#52525b" font-family="'Fira Code', ui-monospace, monospace" font-size="11" text-anchor="middle">1000</text><line x1="78" y1="155.5" x2="872" y2="155.5" stroke="#27272a"/><text x="68" y="159.5" fill="#52525b" font-family="'Fira Code', ui-monospace, monospace" font-size="11" text-anchor="end">1500</text><text x="673.5" y="450" fill="#52525b" font-family="'Fira Code', ui-monospace, monospace" font-size="11" text-anchor="middle">1500</text><line x1="78" y1="64" x2="872" y2="64" stroke="#27272a"/><text x="68" y="68" fill="#52525b" font-family="'Fira Code', ui-monospace, monospace" font-size="11" text-anchor="end">2000</text><text x="872" y="450" fill="#52525b" font-family="'Fira Code', ui-monospace, monospace" font-size="11" text-anchor="middle">2000</text><text x="475" y="462" fill="#a1a1aa" font-family="'Fira Code', ui-monospace, monospace" font-size="12" text-anchor="middle">task-watchers (N)</text><text transform="translate(20,247) rotate(-90)" fill="#a1a1aa" font-family="'Fira Code', ui-monospace, monospace" font-size="12" text-anchor="middle">open connections</text><line x1="78" y1="427.255" x2="872" y2="427.255" stroke="#eab308" stroke-width="1.3" stroke-dasharray="6 4"/><text x="86" y="419.255" fill="#eab308" font-family="'Fira Code', ui-monospace, monospace" font-size="11" text-anchor="start">Gmail per-account cap = 15  →  emersion breaks at N=16</text><polyline points="78.4,429.8 80.0,429.1 84.0,427.3 97.8,420.9 117.7,411.7 177.3,384.3 276.5,338.5 475.0,247.0 872.0,64.0" fill="none" stroke="#ef4444" stroke-width="2.5"/><circle cx="78.4" cy="429.8" r="3.2" fill="#ef4444"/><circle cx="80.0" cy="429.1" r="3.2" fill="#ef4444"/><circle cx="84.0" cy="427.3" r="3.2" fill="#ef4444"/><circle cx="97.8" cy="420.9" r="3.2" fill="#ef4444"/><circle cx="117.7" cy="411.7" r="3.2" fill="#ef4444"/><circle cx="177.3" cy="384.3" r="3.2" fill="#ef4444"/><circle cx="276.5" cy="338.5" r="3.2" fill="#ef4444"/><circle cx="475.0" cy="247.0" r="3.2" fill="#ef4444"/><circle cx="872.0" cy="64.0" r="3.2" fill="#ef4444"/><polyline points="78.4,429.8 80.0,429.8 84.0,429.8 97.8,429.8 117.7,429.8 177.3,429.8 276.5,429.8 475.0,429.8 872.0,429.8" fill="none" stroke="#22c55e" stroke-width="2.5"/><circle cx="78.4" cy="429.8" r="3.2" fill="#22c55e"/><circle cx="80.0" cy="429.8" r="3.2" fill="#22c55e"/><circle cx="84.0" cy="429.8" r="3.2" fill="#22c55e"/><circle cx="97.8" cy="429.8" r="3.2" fill="#22c55e"/><circle cx="117.7" cy="429.8" r="3.2" fill="#22c55e"/><circle cx="177.3" cy="429.8" r="3.2" fill="#22c55e"/><circle cx="276.5" cy="429.8" r="3.2" fill="#22c55e"/><circle cx="475.0" cy="429.8" r="3.2" fill="#22c55e"/><circle cx="872.0" cy="429.8" r="3.2" fill="#22c55e"/><text x="693.35" y="134.34999999999997" fill="#ef4444" font-family="'Fira Code', ui-monospace, monospace" font-size="11.5" text-anchor="end">emersion: N connections</text><text x="90" y="98" fill="#22c55e" font-family="'Fira Code', ui-monospace, monospace" font-size="11.5" text-anchor="start">emap-go: 1 connection — flat along the bottom</text><line x1="78" y1="480" x2="104" y2="480" stroke="#22c55e" stroke-width="3"/><text x="111" y="484" fill="#a1a1aa" font-family="'Fira Code', ui-monospace, monospace" font-size="12.5">emap-go (pooled)</text><line x1="260.4" y1="480" x2="286.4" y2="480" stroke="#ef4444" stroke-width="3"/><text x="293.4" y="484" fill="#a1a1aa" font-family="'Fira Code', ui-monospace, monospace" font-size="12.5">emersion (one client per task)</text>
</svg>
